<svg width="27" height="27" viewBox="0 0 27 27" xmlns="http://www.w3.org/2000/svg"><title>Blogger</title><g fill="none" fill-rule="evenodd"><path fill="#D8D8D8" d="M.632 0H27v26.34H.632z"/><path d="M6.345 15.816c0 2.662 2.177 4.818 4.86 4.818h5.23c2.683 0 4.852-2.156 4.852-4.818V12.4c0-.533-.43-.965-.966-.965h-.82c-.53 0-.948-.397-.983-.896-.005-2.675-2.18-4.833-4.864-4.833h-2.45c-2.68 0-4.856 2.158-4.858 4.82v5.29zm8.83-5.02c0 .56-.432 1.018-.962 1.018h-2.83c-.53 0-.963-.457-.963-1.018 0-.563.432-1.018.962-1.018h2.83c.53 0 .962.455.962 1.018zm2.716 4.745c0 .562-.407 1.023-.907 1.023h-5.66c-.5 0-.903-.46-.903-1.022 0-.56.403-1.012.903-1.012h5.66c.5 0 .908.45.908 1.013z" opacity=".817" fill="#FFF"/></g></svg>