<svg width="27" height="27" viewBox="0 0 27 27" xmlns="http://www.w3.org/2000/svg"><title>Google+</title><path d="M.422 0v26.34H26.79V0H.42zm21.444 7.056v-4.9h-2.102v4.9h-4.906v2.057h4.906v4.944h2.102V9.113h4.923V7.056h-4.924zM4.368 15.63c.388 0 .812-.038 1.238-.077-.192.467-.386.855-.386 1.514 0 1.2.618 1.937 1.16 2.636-1.48.1-3.75.145-5.958 1.092v2.034c.798-1.085 1.763-1.215 2.32-1.418 1.626-.544 3.715-.622 4.065-.622.385 0 .578 0 .886.04 2.942 2.095 4.833 3.14 4.833 5.12 0 .21 0 .282-.007.39h2.313c.227-.732.345-1.186.345-1.904 0-2.676-2.223-3.997-3.924-5.432L9.86 17.92c-.425-.35-1.005-.815-1.005-1.667 0-.854.58-1.4 1.083-1.902 1.624-1.277 3.138-2.637 3.138-5.506 0-2.62-1.416-4.09-2.366-4.913h2.37l2.172-1.75H7.077c-2.03.038-4.45.342-6.655 2.166v10.03c1.06.88 2.19 1.255 3.946 1.255zM1.625 7.644c0-1.01.1-2.056.76-2.87.62-.777 1.7-1.28 2.707-1.28 3.21 0 4.83 4.343 4.83 7.137 0 .56-.285 1.652-1.01 2.482-.636.725-1.628.97-2.594.97-3.327 0-4.693-3.842-4.693-6.44z" fill="#D4D4D4" fill-rule="evenodd"/></svg>