<svg width="27" height="27" viewBox="0 0 27 27" xmlns="http://www.w3.org/2000/svg"><title>Twitter</title><path d="M0 0v26.34h26.368V0H0zm15.015 8.027c-1.15.418-1.878 1.497-1.795 2.678l.027.456-.46-.055c-1.676-.214-3.14-.94-4.384-2.158l-.607-.604-.157.446c-.332.995-.12 2.046.57 2.752.368.39.286.447-.35.214-.22-.074-.414-.13-.433-.102-.064.065.157.91.332 1.246.238.465.726.92 1.26 1.19l.452.215-.534.01c-.516 0-.535.008-.48.204.185.603.912 1.245 1.723 1.524l.572.195-.498.297c-.736.428-1.602.67-2.468.688-.414.01-.755.047-.755.075 0 .093 1.125.613 1.78.818 1.96.605 4.29.344 6.04-.688 1.243-.735 2.486-2.195 3.066-3.61.313-.752.626-2.13.626-2.79 0-.427.028-.483.543-.994.304-.298.59-.623.645-.716.092-.177.083-.177-.387-.02-.783.28-.893.243-.506-.176.285-.297.626-.837.626-.995 0-.03-.138.018-.295.1-.166.094-.534.234-.81.318l-.497.158-.45-.307c-.25-.17-.6-.355-.783-.41-.47-.13-1.188-.112-1.612.037z" fill="#D8D8D8" fill-rule="evenodd"/></svg>