<?xml version="1.0" encoding="UTF-8" standalone="no"?>
<svg width="27px" height="27px" viewBox="0 0 27 27" version="1.1" xmlns="http://www.w3.org/2000/svg" xmlns:xlink="http://www.w3.org/1999/xlink" xmlns:sketch="http://www.bohemiancoding.com/sketch/ns">
    <!-- Generator: Sketch 3.3.2 (12043) - http://www.bohemiancoding.com/sketch -->
    <title>Blogger</title>
    <desc>Created with Sketch.</desc>
    <defs></defs>
    <g id="Page-1" stroke="none" stroke-width="1" fill="none" fill-rule="evenodd" sketch:type="MSPage">
        <g id="Landing-Page" sketch:type="MSArtboardGroup" transform="translate(-558.000000, -1237.000000)">
            <g id="©-Helpers-Technology-+-Social-Icons" sketch:type="MSLayerGroup" transform="translate(364.000000, 1237.000000)">
                <g id="Social-Icons" transform="translate(74.000000, 0.000000)" sketch:type="MSShapeGroup">
                    <g id="Blogger" transform="translate(120.632287, 0.000000)">
                        <rect id="Rectangle-91" fill="#D8D8D8" x="0" y="0" width="26.367713" height="26.3414634"></rect>
                        <path d="M5.71300448,15.8159291 C5.71300448,18.4784731 7.88967808,20.6341463 10.5717431,20.6341463 L15.8016606,20.6341463 C18.4857101,20.6341463 20.6547085,18.4784731 20.6547085,15.8159291 L20.6547085,12.399347 C20.6547085,11.867258 20.2251345,11.4353712 19.6886923,11.4353712 L18.868562,11.4353712 C18.3379565,11.4353712 17.9201432,11.0382942 17.8850944,10.538916 C17.8793745,7.86468121 15.7044519,5.70731707 13.0205775,5.70731707 L10.5717431,5.70731707 C7.88967808,5.70731707 5.71490138,7.86471037 5.71300448,10.5274293 L5.71300448,15.8159291 Z M14.5421932,10.7960889 C14.5421932,11.356652 14.1103336,11.8137472 13.5805505,11.8137472 L10.7496574,11.8137472 C10.2199043,11.8137472 9.78801468,11.356716 9.78801468,10.7960889 C9.78795464,10.2332542 10.2198443,9.77827051 10.7496574,9.77827051 L13.5805505,9.77827051 C14.1103336,9.77827051 14.5421932,10.2332542 14.5421932,10.7960889 Z M17.2588667,15.5408544 C17.2588667,16.1022696 16.8505618,16.5631929 16.3504189,16.5631929 L10.6905393,16.5631929 C10.1904264,16.5631929 9.78801468,16.1022696 9.78801468,15.5408544 C9.78801468,14.9794393 10.1904862,14.5277162 10.6905393,14.5277162 L16.3504189,14.5277162 C16.8505618,14.5277162 17.2588667,14.9794054 17.2588667,15.5408544 Z" id="Path" opacity="0.817047575" fill="#FFFFFF"></path>
                    </g>
                </g>
            </g>
        </g>
    </g>
</svg>