<?xml version="1.0" encoding="UTF-8" standalone="no"?>
<svg width="27px" height="27px" viewBox="0 0 27 27" version="1.1" xmlns="http://www.w3.org/2000/svg" xmlns:xlink="http://www.w3.org/1999/xlink" xmlns:sketch="http://www.bohemiancoding.com/sketch/ns">
    <!-- Generator: Sketch 3.3.2 (12043) - http://www.bohemiancoding.com/sketch -->
    <title>Facebook</title>
    <desc>Created with Sketch.</desc>
    <defs></defs>
    <g id="Page-1" stroke="none" stroke-width="1" fill="none" fill-rule="evenodd" sketch:type="MSPage">
        <g id="Landing-Page" sketch:type="MSArtboardGroup" transform="translate(-478.000000, -1237.000000)" fill="#D8D8D8">
            <g id="©-Helpers-Technology-+-Social-Icons" sketch:type="MSLayerGroup" transform="translate(364.000000, 1237.000000)">
                <g id="Social-Icons" transform="translate(74.000000, 0.000000)" sketch:type="MSShapeGroup">
                    <path d="M40.2107623,0 L40.2107623,26.3414634 L66.5784753,26.3414634 L66.5784753,0 L40.2107623,0 Z M51.533593,20.3354662 L51.533593,13.1701724 L50.0530582,13.1701724 L50.0530582,10.7008761 L51.533593,10.7008761 L51.533593,9.21831959 C51.533593,7.2038716 52.3695955,6.00599724 54.7447776,6.00599724 L56.7221832,6.00599724 L56.7221832,8.47557317 L55.4861647,8.47557317 C54.5615652,8.47557317 54.5004012,8.82065942 54.5004012,9.46468992 L54.497042,10.7005965 L56.7361795,10.7005965 L56.4741677,13.1698928 L54.497042,13.1698928 L54.497042,20.3354662 L51.533593,20.3354662 Z" id="Facebook"></path>
                </g>
            </g>
        </g>
    </g>
</svg>