<?xml version="1.0" encoding="UTF-8" standalone="no"?>
<svg width="27px" height="27px" viewBox="0 0 27 27" version="1.1" xmlns="http://www.w3.org/2000/svg" xmlns:xlink="http://www.w3.org/1999/xlink" xmlns:sketch="http://www.bohemiancoding.com/sketch/ns">
    <!-- Generator: Sketch 3.3.2 (12043) - http://www.bohemiancoding.com/sketch -->
    <title>Google+</title>
    <desc>Created with Sketch.</desc>
    <defs></defs>
    <g id="Page-1" stroke="none" stroke-width="1" fill="none" fill-rule="evenodd" sketch:type="MSPage">
        <g id="Landing-Page" sketch:type="MSArtboardGroup" transform="translate(-518.000000, -1237.000000)" fill="#D4D4D4">
            <g id="©-Helpers-Technology-+-Social-Icons" sketch:type="MSLayerGroup" transform="translate(364.000000, 1237.000000)">
                <g id="Social-Icons" transform="translate(74.000000, 0.000000)" sketch:type="MSShapeGroup">
                    <path d="M80.4215247,0 L80.4215247,26.3414634 L106.789238,26.3414634 L106.789238,0 L80.4215247,0 Z M101.866148,7.05571902 L101.866148,2.15528488 L99.7637451,2.15528488 L99.7637451,7.05571902 L94.8581639,7.05571902 L94.8581639,9.11338244 L99.7637451,9.11338244 L99.7637451,14.0572537 L101.866148,14.0572537 L101.866148,9.11338244 L106.789238,9.11338244 L106.789238,7.05571902 L101.866148,7.05571902 Z M84.3680594,15.6310507 C84.7558493,15.6310507 85.1799476,15.5916966 85.6063663,15.5531063 C85.4135128,16.0197454 85.2196047,16.4079132 85.2196047,17.0669766 C85.2196047,18.2680156 85.8376111,19.0042332 86.3798895,19.7034146 C84.9013464,19.8032224 82.6297943,19.8479766 80.4215247,20.7951102 L80.4215247,22.8288556 C81.2202554,21.7453522 82.18476,21.615199 82.7432545,21.4117112 C84.3680594,20.8681551 86.4571469,20.7899473 86.8068091,20.7899473 C87.1917778,20.7899473 87.3851586,20.7899473 87.6931071,20.8298283 C90.6352429,22.925318 92.5262825,23.9692039 92.5262825,25.9507141 C92.5262825,26.1601024 92.5268099,26.2321463 92.5188204,26.3414634 L94.83293,26.3401727 C95.0595342,25.607801 95.1777143,25.1540429 95.1777143,24.43608 C95.1784789,21.7597346 92.9552852,20.439079 91.2537503,19.0037063 L89.8596893,17.9199395 C89.4345627,17.5706254 88.8549476,17.1047766 88.8549476,16.2532888 C88.8549476,15.3987454 89.4345627,14.8544254 89.9377114,14.3512507 C91.5624899,13.0730312 93.076313,11.7132585 93.076313,8.84375122 C93.076313,6.22377659 91.6595758,4.75286927 90.7099162,3.93072585 L93.0804264,3.93072585 L95.2521239,2.18070439 L87.0766827,2.18070439 C85.0476081,2.21826732 82.6264456,2.52232683 80.4215247,4.34589366 L80.4215247,14.3759854 C81.4816122,15.2562644 82.6124443,15.6310507 84.3680594,15.6310507 Z M81.6249471,7.64300195 C81.6249471,6.6325961 81.72641,5.58741951 82.3840472,4.77246732 C83.0041103,3.99636878 84.0861094,3.49269366 85.0924068,3.49269366 C88.3013311,3.49269366 89.9220226,7.83619024 89.9220226,10.6295444 C89.9220226,11.1887737 89.6372249,12.2820498 88.9116118,13.112438 C88.2755699,13.836802 87.284223,14.0829893 86.3180836,14.0829893 C82.9907155,14.0829893 81.6249471,10.2400595 81.6249471,7.64300195 Z" id="Google+"></path>
                </g>
            </g>
        </g>
    </g>
</svg>