<?xml version="1.0" encoding="UTF-8" standalone="no"?>
<svg width="27px" height="27px" viewBox="0 0 27 27" version="1.1" xmlns="http://www.w3.org/2000/svg" xmlns:xlink="http://www.w3.org/1999/xlink" xmlns:sketch="http://www.bohemiancoding.com/sketch/ns">
    <!-- Generator: Sketch 3.3.2 (12043) - http://www.bohemiancoding.com/sketch -->
    <title>Twitter</title>
    <desc>Created with Sketch.</desc>
    <defs></defs>
    <g id="Page-1" stroke="none" stroke-width="1" fill="none" fill-rule="evenodd" sketch:type="MSPage">
        <g id="Landing-Page" sketch:type="MSArtboardGroup" transform="translate(-438.000000, -1237.000000)" fill="#D8D8D8">
            <g id="©-Helpers-Technology-+-Social-Icons" sketch:type="MSLayerGroup" transform="translate(364.000000, 1237.000000)">
                <g id="Social-Icons" transform="translate(74.000000, 0.000000)" sketch:type="MSShapeGroup">
                    <path d="M0,0 L0,26.3414634 L26.367713,26.3414634 L26.367713,0 L0,0 Z M15.0151839,8.02671806 C13.8641179,8.44525207 13.1366442,9.52413973 13.2195209,10.7053357 L13.2471465,11.1610727 L12.7867201,11.1052682 C11.110768,10.8913508 9.64661208,10.1658919 8.4034608,8.94749288 L7.79569796,8.34294375 L7.63915298,8.78938003 C7.30764597,9.78456089 7.51944212,10.8355463 8.21008172,11.5424037 C8.57842284,11.9330355 8.49554608,11.98884 7.86015765,11.7563211 C7.63915298,11.6819151 7.44577389,11.6261105 7.42735684,11.6540128 C7.36289714,11.7191181 7.58390181,12.5654869 7.75886385,12.9003141 C7.99828557,13.3653518 8.48633756,13.8210889 9.02043218,14.0908108 L9.47165005,14.3047282 L8.93755543,14.3140289 C8.42187786,14.3140289 8.4034608,14.3233297 8.45871197,14.5186456 C8.64288253,15.1231947 9.37035624,15.7649468 10.1807067,16.0439695 L10.7516354,16.2392854 L10.2543749,16.5369096 C9.51769269,16.9647443 8.65209106,17.206564 7.78648943,17.2251655 C7.37210567,17.2344662 7.03139013,17.2716693 7.03139013,17.2995715 C7.03139013,17.3925791 8.15483055,17.9134214 8.80863604,18.118038 C10.7700525,18.7225871 13.0998101,18.462166 14.8494304,17.4297821 C16.0925817,16.6950224 17.3357329,15.2348038 17.9158702,13.8210889 C18.2289602,13.0677277 18.5420501,11.6912158 18.5420501,11.0308622 C18.5420501,10.6030274 18.5696757,10.5472229 19.0853533,10.0356813 C19.3892347,9.73805711 19.6746991,9.41253066 19.7299502,9.31952311 C19.8220355,9.14280875 19.812827,9.14280875 19.343192,9.30092159 C18.5604672,9.57994427 18.4499648,9.54274124 18.836723,9.12420724 C19.1221874,8.82658305 19.4629029,8.28713922 19.4629029,8.12902637 C19.4629029,8.10112411 19.324775,8.14762788 19.16823,8.23133469 C19.0024765,8.32434224 18.6341354,8.46385358 18.3578796,8.54756038 L17.860619,8.70567323 L17.4094012,8.39874829 C17.1607709,8.23133469 16.8108469,8.04531957 16.6266763,7.98951504 C16.1570414,7.85930446 15.4387762,7.87790597 15.0151839,8.02671806 Z" id="Twitter"></path>
                </g>
            </g>
        </g>
    </g>
</svg>